<?xml version="1.0" standalone="yes"?>
<svg xmlns="http://www.w3.org/2000/svg" width="1232" height="711">

<!-- <path style="fill:#ffc680; stroke:none;" d="M907 0L916.185 17L922.891 37.7145L935.036 54.1288L936 64L932 63L951 94L946 88L948 89L948 88L939.054 85.8449L931 76L934 77L935 73L917 56L913 57L913 56L914 52L910 53L902 39L900 40C898.541 33.9304 895.573 29.8995 890 27L891 24L871 13C869.079 9.34985 867.066 8.48212 863 9C866.241 17.3811 873.407 23.931 878.761 31C892.711 49.4189 908.935 66.2234 924.964 82.9962C931.324 89.6511 940.06 102.454 949 105C948.874 113.284 958.233 115.995 965 116L965 112C971.963 117.586 980.486 116 989 116L1039 116C1031.02 105.042 1018.21 95.761 1008 86.8696C991.261 72.2805 974.803 57.2894 958.089 42.6898C942.556 29.121 926.003 8.46991 907 0z"/> -->
<path style="fill:#ffffff; stroke:none;" d="M909 0C916.755 10.1396 929.349 17.9 939 26.2816C959.401 44 979.972 61.7354 999.83 80.0803C1007.73 87.382 1016 94.3752 1023.71 101.869C1028.19 106.216 1034.04 113.262 1040 115.4C1047.54 118.103 1059.03 116 1067 116C1096.4 116 1133.35 109.276 1158 128.669C1183.82 148.977 1183.66 177.269 1180.83 207C1179.94 216.39 1175.73 232.891 1178.69 241.83C1180.6 247.571 1189.52 252.686 1194 256.414C1206.02 266.418 1223.91 277.857 1231 292L1232 292L1232 0L909 0z"/>
<!-- <path style="fill:#ffc680; stroke:none;" d="M819 12C823.312 23.3776 832.905 32.7969 840.565 42C849.777 53.0681 860.338 63.0493 869.533 74.0185C877.399 83.4011 885.518 92.0328 893.911 100.999C898.433 105.831 903.63 112.827 910 115.258C914.688 117.047 921.052 116 926 116L925 113L916.683 103.304L890 81C891.148 74.4953 882.442 66.8085 878.075 62.5756C871.177 55.8898 866.832 46.9492 859.896 40.1729C855.343 35.7252 849.319 33.3612 844 30C844.602 37.9967 852.137 44.9664 857 51C840.691 42.6647 835.601 19.9648 819 12z"/> -->
<path style="fill:#ffffff; stroke:none;" d="M894.333 35.6667L894.667 36.3333L894.333 35.6667M906 51L907 52L906 51M859 54L859 58L860 58L859 54M937 58L944 64L937 58M864 60L865 61L864 60M869 65L871 67L869 65M922 69L927 74L922 69M876 74L877 75L876 74M887 77L889 79L887 77M880 78L881 79L880 78M948 96L952 100L952 99L948 96M906 99L907 100L906 99M953 101L953 103L955 103L953 101M956 104L959 107L956 104M962 109L963 110L962 109M965 112L965 116L969 116L965 112z"/>
<path style="fill:#BFF5FA; stroke:none;" d="M3 218L47 184.861L66 174L67 171L94 155.039L159 117C148.02 112.393 128.944 116 117 116C79.0643 116 31.8199 107.101 8.46682 145C-5.24616 167.254 1.07039 193.549 3 218z"/>
<path style="fill:#9fa0c4; stroke:none;" d="M159 116L160 117L159 116z"/>
<path style="fill:#bff5fa; stroke:none;" d="M67 171C53.3997 184.805 32.6259 195.31 17 207.004C10.8114 211.635 1.48133 216.13 4 225C8.96163 223.081 15.0242 219.469 16 214C20.3993 213.759 24.0778 212.938 24 208L64.0895 179.181L84 169L83 171L84 171C100.678 161.892 116.262 150.77 133 141.768C137.417 139.393 149.292 133.998 150 129L176 117C164.329 112.103 152.722 120.071 143 125.576C124.082 136.287 105.743 147.865 87 158.861C81.165 162.284 73.6464 170.485 67 171z"/>
<path style="fill:#9fa0c4; stroke:none;" d="M176 116L177 117L176 116z"/>
<path style="fill:#BFF5FA; stroke:none;" d="M78 175C73.4578 172.343 69.0068 175.916 65.0895 178.587C55.6934 184.993 33.598 196.067 30 207C25.5232 207.744 24.481 211.219 20.9421 213.688C12.1804 219.799 2.14269 223.925 5 236L6 236C14.006 226.59 27.2621 222.319 36.8958 214.795C54.1897 201.288 71.8148 182.149 93 174L93 175L90 176L90 177C94.9898 175.107 98.3241 171.129 103.039 168.871C113.152 164.03 128.655 159.153 135 149L138 149L111.285 169.71L72 199.51L44 221L58 208L5 244L6 251L7 251C11.9569 246.218 29.0711 230.98 36 234L37 234L81 200L76 206L119 179C120.946 172.498 133.452 169.392 139 166C141.76 156.706 157.828 154.647 165 150L163 148L166 147C167.509 141.919 176.1 136.698 181 135C174.276 148.572 166.855 153.524 154 161L154 162L168 156L168 157L160 162L160 163L163 162L163 163L159 165L160 167L154 170L154 171L159 169L159 170L155 172L155 173L165 167L145 182L147 184C136.186 186.268 126.879 194.69 118 201L119 203C90.9868 216.877 65.9017 238.869 41 257.392C32.2158 263.926 14.5555 274.765 10.1173 285.001C7.25931 291.592 10.8728 304.962 11.7145 312C13.8994 330.269 15.0006 348.694 16.831 367C23.2229 430.927 27.1619 495.199 34.7145 559C38.2991 589.281 39.6639 618.468 71 633.741C90.4466 643.219 112.167 639.663 133 641.089C185.137 644.66 237.738 644.734 290 646.015C406.239 648.862 522.814 651.952 639 657.039C686.16 659.104 733.794 661.995 781 662L780 658C796.404 665.727 817.043 662.617 835 662.275C838.766 662.204 842.124 664.187 845.985 663.938C848.844 663.752 851.24 661.597 854 661.597C856.506 661.597 858.488 663.661 861.025 663.798C864.919 664.007 867.254 659.515 870.911 660.059C873.88 660.5 875.087 664.091 878.104 664.624C881.943 665.303 884.425 661.671 887.996 661.322C892.138 660.917 894.756 665.551 899.015 665.467C903.193 665.384 905.865 661.198 910 661.157C913.869 661.118 916.337 664.917 920 665.664C924.028 666.484 926.811 663.053 930.576 663.22C934.556 663.397 937.704 666.802 942 666.981C979.094 668.524 1017.05 666.654 1054 670.17C1086.02 673.217 1122.57 674.467 1142.3 644C1157.63 620.329 1154.24 587.07 1156.09 560C1160.38 497.424 1163.23 434.435 1169.17 372C1174.16 319.521 1176.49 266.578 1180.09 214C1181.9 187.603 1187.08 161.564 1169.33 139C1149.31 113.548 1121.03 116 1092 116L927 116L443 116L277 116C252.159 116 222.309 111.431 198 116.38C191.507 117.702 186.43 122.529 180 124L180 125L182 127L172 132L179 125L175 127L190 117C179.732 112.691 167.625 119.907 159 125.015C142.439 134.821 126.655 145.904 110 155.576C99.8975 161.442 86.1975 166.715 78 175z"/>
<path style="fill:#9fa0c4; stroke:none;" d="M190 116L191 117L190 116z"/>
<path style="fill:#bff5fa; stroke:none;" d="M177 126L180 125L172 131L172 132C174.313 130.957 182.415 127.714 180 125L180 124L196 117C189.831 114.622 180.849 121.476 177 126z"/>
<path style="fill:#9fa0c4; stroke:none;" d="M196 116L197 117L196 116M157 117L158 118L157 117M173 117L174 118L173 117M188 117L189 118L188 117M193.667 117.333L194.333 117.667L193.667 117.333M155 118L156 119L155 118M171 118L172 119L171 118M187 118L188 119L187 118M169 119L170 120L169 119M185 119L186 120L185 119M190 119L191 120L190 119M167 120L168 121L167 120M183 120L184 121L183 120M188 120L189 121L188 120M150 121L151 122L150 121M165 121L166 122L165 121M182 121L183 122L182 121M186 121L187 122L186 121M148 122L149 123L148 122M163 122L164 123L163 122M180 122L181 123L180 122M146 123L147 124L146 123M178 123L179 124L178 123M183 123L184 124L183 123M177 124L178 125L177 124M143 125L144 126L143 125M158 125L159 126L158 125M176 125L175 127L177 127L176 125M179 125L180 126L179 125M141 126L142 127L141 126M156 126L157 127L156 126M178 126L179 127L178 126M181 126L182 127L181 126M139 127L140 128L139 127M154 127L155 128L154 127z"/>
<path style="fill:#bff5fa; stroke:none;" d="M173.667 127.333L174.333 127.667L173.667 127.333z"/>
<path style="fill:#9fa0c4; stroke:none;" d="M177 127L178 128L177 127M180 127L181 128L180 127M137 128L138 129L137 128M178 128L179 129L178 128M150 129L150 130L153 130L150 129M174 129L175 130L174 129M176 129L177 130L176 129M134 130L135 131L134 130M175 130L176 131L175 130M132 131L133 132L132 131M148 131L149 132L148 131M173 131L174 132L173 131M130 132L131 133L130 132M147 132L148 133L147 132M153 134L156 133L153 134z"/>
<path style="fill:#bff5fa; stroke:none;" d="M161 138L161 139L172 133L161 138z"/>
<path style="fill:#9fa0c4; stroke:none;" d="M145 133L146 134L145 133z"/>
<path style="fill:#bff5fa; stroke:none;" d="M154 133L155 134L154 133z"/>
<path style="fill:#9fa0c4; stroke:none;" d="M168 133L169 134L168 133M127 134L128 135L127 134M144 134L145 135L144 134M165 134L166 135L165 134M143 135L144 136L143 135M167 135L168 136L167 135M178 135L179 136L178 135z"/>
<path style="fill:#bff5fa; stroke:none;" d="M179 135C171.389 140.637 163.67 153.573 154 153L140 163L140 164L143 163L143 164L126 172L123 174L124 176L121 175L121 178L75 207L79 201L49 225.152L36 232C28.4785 234.775 9.46699 244.234 6.64275 252.104C3.49525 260.875 8.92257 275.647 9 285C18.1376 277.848 25.8929 268.993 35 261.819C58.676 243.168 83.992 226.265 108.999 209.421C119.008 202.679 132.149 185.122 145 185L165 167L151 175L151 174L155 172L155 171L152 172L153 168L156 169L163 163L163 162L159 163L159 162L166 157L152 163L152 162C161.678 157.482 182.12 148.904 179 135z"/>
<path style="fill:#9fa0c4; stroke:none;" d="M180 135L181 136L180 135M124 136L125 137L124 136M141 136L142 137L141 136M163 136L164 137L163 136M166 136L167 137L166 136M176 136L177 137L176 136M122 137L123 138L122 137M164 137L165 138L164 137M179 137L180 138L179 137M120 138L121 139L120 138M138 138L139 139L138 138M160.667 139.333L161.333 139.667L160.667 139.333M173 139L174 140L173 139M179 139L180 140L179 139M117 140L118 141L117 140M135 140L136 141L135 140M115 141L116 142L115 141M133 141L134 142L133 141M170 141L171 142L170 141M113 142L114 143L113 142M131 142L132 143L131 142M129 143L130 144L129 143M167 143L168 144L167 143M110 144L111 145L110 144M166 144L167 145L166 144M176.333 144.667L176.667 145.333L176.333 144.667M165 145L166 146L165 145M167 145L168 146L167 145M107 146L108 147L107 146M124 146L125 147L124 146M164 147L163 149L165 149L164 147M104 148L105 149L104 148M121 148L122 149L121 148M102 149L103 150L102 149M119 149L120 150L119 149M131 149L132 150L131 149M135 149L134 151L135 149M137 149L138 150L137 149M118 150L119 151L118 150z"/>
<path style="fill:#bff5fa; stroke:none;" d="M90 177L90 176L93 175L93 174C88.5428 175.715 84.3808 178.202 83 183L81 181C69.9935 188.883 57.634 195.285 47.0895 203.76C40.2945 209.222 35.571 215.54 28 220.319C18.2403 226.479 5.04571 231.058 5 244C9.85939 241.58 15.3523 238.391 17 233C23.9925 233.424 36.0437 224.19 39 218L58 208L49 218L138 151L125 157.136L90 177z"/>
<path style="fill:#9fa0c4; stroke:none;" d="M99 151L100 152L99 151M116 151L117 152L116 151M162 151L163 152L162 151M115 152L116 153L115 152M135 152L136 153L135 152M96 153L97 154L96 153M113 153L114 154L113 153M130 153L131 154L130 153M159 153L160 154L159 153M167 153L168 154L167 153M94 154L95 155L94 154M129 154L130 155L129 154M132 154L133 155L132 154M153 154L154 155L153 154M169 154L168 156L170 156L169 154M110 155L111 156L110 155M128 155L129 156L128 155M131 155L132 156L131 155M152 155L153 156L152 155M91 156L92 157L91 156M108 156L109 157L108 156M126 156L127 157L126 156M130 156L131 157L130 156M150.667 156.333L151.333 156.667L150.667 156.333M162.667 156.333L163.333 156.667L162.667 156.333M166 156L166 158L168 156L166 156M106 157L107 158L106 157M124 157L125 158L124 157M129 157L130 158L129 157M160 157L161 158L160 157M164 157L165 158L164 157M87 158L88 159L87 158M113 161L118 159L113 161z"/>
<path style="fill:#bff5fa; stroke:none;" d="M116 158L117 159L116 158z"/>
<path style="fill:#9fa0c4; stroke:none;" d="M127 158L128 159L127 158M147 158L148 159L147 158M158 158L159 159L158 158M162 158L163 159L162 158M103 159L104 160L103 159z"/>
<path style="fill:#bff5fa; stroke:none;" d="M115 159L116 160L115 159z"/>
<path style="fill:#9fa0c4; stroke:none;" d="M156 159L157 160L156 159M159 159L160 160L159 159M101 160L102 161L101 160M111 160L109 161L109 162L109 163L111 160z"/>
<path style="fill:#bff5fa; stroke:none;" d="M112 160L113 161L112 160z"/>
<path style="fill:#9fa0c4; stroke:none;" d="M119 160L120 161L119 160M124 160L125 161L124 160M143 160L144 161L143 160M157 160L158 161L157 160M162 160L163 161L162 160M99 161L100 162L99 161z"/>
<path style="fill:#bff5fa; stroke:none;" d="M110 161L111 162L110 161z"/>
<path style="fill:#9fa0c4; stroke:none;" d="M122 161L123 162L122 161M142 161L143 162L142 161M153.333 161.667L153.667 162.333L153.333 161.667M155 161L156 162L155 161M163 161L164 162L163 161M81 162L82 163L81 162M116 162L117 163L116 162M140 162L141 163L140 162z"/>
<path style="fill:#BFF5FA; stroke:none;" d="M152 162L153 163L152 162z"/>
<path style="fill:#9fa0c4; stroke:none;" d="M159 162L160 163L159 162M79 163L80 164L79 163M115 163L116 164L115 163M119 163L120 164L119 163M139 163L139 166L140 166L139 163M141 163L141 165L143 163L141 163M158 163L159 164L158 163M77 164L78 165L77 164M94 164L95 165L94 164M118 164L119 165L118 164z"/>
<path style="fill:#bff5fa; stroke:none;" d="M138 164L139 165L138 164z"/>
<path style="fill:#BFF5FA; stroke:none;" d="M140 164L141 165L140 164z"/>
<path style="fill:#9fa0c4; stroke:none;" d="M159 164L160 165L159 164M93 165L94 166L93 165M112 165L113 166L112 165M136.667 165.333L137.333 165.667L136.667 165.333M158 165L158 168L160 167L160 166L158 165M166 165L165 167L166 165M84 166L85 167L84 166M91 166L92 167L91 166M115 166L116 167L115 166M156 166L156 169L157 169L156 166z"/>
<path style="fill:#BFF5FA; stroke:none;" d="M157 166L158 167L157 166z"/>
<path style="fill:#9fa0c4; stroke:none;" d="M89 167L90 168L89 167M105 167L106 168L105 167M107 167L108 168L107 167M109 167L110 168L109 167M114 167L115 168L114 167M136 167L137 168L136 167z"/>
<path style="fill:#BFF5FA; stroke:none;" d="M155 167L156 168L155 167z"/>
<path style="fill:#bff5fa; stroke:none;" d="M157 167L158 168L157 167z"/>
<path style="fill:#9fa0c4; stroke:none;" d="M163 167L164 168L163 167M73 168L74 169L73 168M84.6667 168.333L85.3333 168.667L84.6667 168.333M88 168L89 169L88 168M103 168L104 169L103 168M134 168L135 169L134 168M153 168L155 170L155 168L153 168M159 168L160 169L159 168M72 169L73 170L72 169M82 169L82 172L83 172L84 169L82 169M111 169L112 170L111 169M130 169L131 170L130 169M152 169L153 170L152 169M157 169L157 171L159 169L157 169M160 169L161 170L160 169M163 169L164 170L163 169M70 170L71 171L70 170M84 170L85 171L84 170M96 170L96 172L98 172L96 170z"/>
<path style="fill:#bff5fa; stroke:none;" d="M97 170L98 171L97 170z"/>
<path style="fill:#9fa0c4; stroke:none;" d="M99 170L100 171L99 170M131 170L132 171L131 170M153.333 170.667L153.667 171.333L153.333 170.667M155.333 170.667L155.667 171.333L155.333 170.667z"/>
<path style="fill:#bff5fa; stroke:none;" d="M156 170L157 171L156 170z"/>
<path style="fill:#9fa0c4; stroke:none;" d="M77 171L78 172L77 171M109 171L110 172L109 171M128.667 171.333L129.333 171.667L128.667 171.333z"/>
<path style="fill:#BFF5FA; stroke:none;" d="M152 171L153 172L152 171z"/>
<path style="fill:#9fa0c4; stroke:none;" d="M160 171L161 172L160 171M76 172L77 173L76 172M98 172L99 173L98 172M108 172L109 173L108 172M127 172L128 173L127 172M154.333 172.667L154.667 173.333L154.333 172.667M156 172L157 173L156 172M159 172L160 173L159 172M64 173L65 174L64 173M73.6667 173.333L74.3333 173.667L73.6667 173.333M77.3333 173.667L77.6667 174.333L77.3333 173.667M96 173L97 174L96 173M124 175L127 174L124 175M133 173L131 174L131 175L133 173M152 173L151 175L153 175L152 173z"/>
<path style="fill:#BFF5FA; stroke:none;" d="M153 173L154 174L153 173z"/>
<path style="fill:#9fa0c4; stroke:none;" d="M157 173L158 174L157 173M62 174L63 175L62 174M71 174L72 175L71 174M90 174L91 175L90 174M95 174L96 175L95 174M105 174L106 175L105 174M122 174L122 176L124 176L122 174M72 175L71 177L72 175M89 175L90 176L89 175M93 175L94 176L93 175M120 175L121 176L120 175M148 177L151 175L148 177M154 175L155 176L154 175M59 176L60 177L59 176M68 176L69 177L68 176M87 176L88 177L87 176M118 178L121 178L120 176L118 178M121 176L122 177L121 176M86 177L87 178L86 177M102 177L103 178L102 177M126.667 177.333L127.333 177.667L126.667 177.333M151 177L152 178L151 177M155.667 177.333L156.333 177.667L155.667 177.333M56 178L57 179L56 178M64.6667 178.333L65.3333 178.667L64.6667 178.333M72 178L71 180L72 178M85 178L86 179L85 178M153 178L152 180L154 180L153 178z"/>
<path style="fill:#bff5fa; stroke:none;" d="M154 178L155 179L154 178z"/>
<path style="fill:#9fa0c4; stroke:none;" d="M54 179L55 180L54 179M63 179L64 180L63 179M83 179L84 180L83 179M99 179L100 180L99 179M117 179L118 180L117 179M149 179L150 180L149 179M53 180L54 181L53 180M61.3333 180.667L61.6667 181.333L61.3333 180.667M82.3333 180.667L82.6667 181.333L82.3333 180.667M126 180L127 181L126 180M150 180L147 182L147 183L151 181L150 180M51 181L52 182L51 181M80 181L81 182L80 181z"/>
<path style="fill:#BFF5FA; stroke:none;" d="M83 181L84 182L83 181z"/>
<path style="fill:#9fa0c4; stroke:none;" d="M96 181L97 182L96 181M114 181L115 182L114 181M141 181L142 182L141 181M146 181L147 182L146 181M50 182L51 183L50 182M60 182L61 183L60 182z"/>
<path style="fill:#BFF5FA; stroke:none;" d="M82 182L83 183L82 182M122 182L120 185L122 182z"/>
<path style="fill:#9fa0c4; stroke:none;" d="M123 182L124 183L123 182M77 183L78 184L77 183M81 183L82 184L81 183M93 183L94 184L93 183M111 183L112 184L111 183M122 183L123 184L122 183M144 183L144 184L147 184L144 183M47 184L48 185L47 184M57 184L58 185L57 184M76 184L77 185L76 184M78.6667 184.333L79.3333 184.667L78.6667 184.333M92 184L93 185L92 184M119 184L120 185L119 184M142 184L143 185L142 184M45 185L46 186L45 185M108 185L109 186L108 185M140 185L141 186L140 185M44 186L45 187L44 186M54 186L55 187L54 186M89 186L90 187L89 186M106 186L107 187L106 186M43 187L44 188L43 187M52 187L53 188L52 187M88 187L89 188L88 187M105 187L106 188L105 187M137 187L138 188L137 187M51 188L52 189L51 188M70 188L71 189L70 188M103 188L104 189L103 188M40 189L41 190L40 189M49 189L50 190L49 189M68 189L69 190L68 189M134 189L135 190L134 189M48 190L49 191L48 190M84 190L85 191L84 190M100 190L101 191L100 190M103 190L102 192L103 190M133 190L134 191L133 190z"/>
<path style="fill:#ffffff; stroke:none;" d="M0 191L0 711L824 711L816 690L815 690C811.325 695.11 813.363 703.107 809.147 707.573C803.537 713.515 798.349 695.043 797 692C794.106 695.586 794.256 705.098 790.571 707.079C785.121 710.008 781.206 687.624 780 684C788.2 686.372 786.715 695.078 788 702L789 702C789.603 697.919 793.017 684.208 799.581 689.573C802.887 692.275 803.381 698.239 805 702L806 702C807.809 698.133 810.756 685.875 816.961 688.176C822.16 690.104 823.25 697.859 826 702C834.546 687.372 839.389 686.458 845 703C847.797 699.304 848.646 693.54 852.39 690.608C858.692 685.673 861.61 695.562 862 700C867.497 696.992 876.618 678.322 882.107 691.98C882.763 693.613 882.844 695.276 883 697C893.28 691.49 892.754 685.268 900 699L901 699C904.689 693.122 911.542 683.28 917 693C923.911 690.871 927.322 692.419 926 700L924 700L923 697C916.326 707.303 913.308 701.362 911 692C905.767 696.252 900.238 716.34 894.888 700.005L893 694L891 694L888 709C879.271 707.641 879.007 698.127 877 691C870.549 693.581 862.544 717.112 857.39 700.002C856.664 697.591 855.996 695.315 855 693L854 693L847 711L1232 711L1232 296L1206 301L1206 302L1221 325L1201 319L1188 314.632L1174 308C1168.84 335.769 1169.84 365.82 1167.91 394C1164.14 449.011 1159.86 503.989 1156.09 559C1153.67 594.282 1158.66 639.765 1124 661.536C1102.55 675.009 1077 671.09 1053 670.039C1014.79 668.366 976.244 667 938 667L938 668L943 670C937.903 679.842 934.193 665.383 928.506 668.176C925.199 669.8 925.285 679.241 920.089 677.654C914.531 675.956 916.297 665.523 908.978 666.287C901.82 667.035 904.455 678.944 898 678.944C891.639 678.944 893.862 666.239 888.08 666.346C881.978 666.458 883.418 682.257 877.374 681.23C872.5 680.401 871.727 668.746 871 665C865.594 666.851 863.696 674.943 862 680C855.883 676.982 855.565 671.046 854 665L853 665C851.555 668.523 848.028 683.391 842.299 678.573C838.265 675.182 838.914 668.722 835 665C832.831 668.452 831.306 678.158 827.712 679.824C822.783 682.109 819.295 670.114 818 667L816 667C815.439 668.996 814.912 670.99 814.421 673.005C810.51 689.038 802.914 671.819 799 666C797.697 670.12 797.712 682.879 791 681.94C781.274 680.58 786.314 664.66 778.772 662.317C761.937 657.087 737.588 660 720 660C690.686 660 661.317 657 632 657C550.499 657 468.406 652.604 387 649.039C324.256 646.292 260.508 649.118 198 643.17C166.531 640.175 134.489 643.166 103 640.17C83.9084 638.353 66.8804 635.228 53.2894 619.985C37.9522 602.784 36.5143 581.868 34.9113 560C33.592 542.002 31.6267 523.959 29.831 506C22.4703 432.384 16.2961 358.641 9.16975 285C7.10574 263.671 5.23394 242.33 3.16975 221C2.28616 211.869 3.5335 199.421 0 191z"/>
<path style="fill:#9fa0c4; stroke:none;" d="M37 191L38 192L37 191M46 191L47 192L46 191M65 191L66 192L65 191M78 191L77 193L78 191M90 191L89 193L90 191M98 191L99 192L98 191M36 192L37 193L36 192M45 192L46 193L45 192M81 192L82 193L81 192M100 192L99 194L100 192M130 192L131 193L130 192M95 193L96 194L95 193M129 193L130 194L129 193M33 194L34 195L33 194M61 194L62 195L61 194M85.6667 194.333L86.3333 194.667L85.6667 194.333M32 195L33 196L32 195M59 195L60 196L59 195M62 195L63 196L62 195z"/>
<path style="fill:#bff5fa; stroke:none;" d="M84 195L85 196L84 195z"/>
<path style="fill:#9fa0c4; stroke:none;" d="M92 195L93 196L92 195M126 195L127 196L126 195M72 196L73 197L72 196M76 196L77 197L76 196M124 196L125 197L124 196M56 197L57 198L56 197M74 197L75 198L74 197M89 197L90 198L89 197M30 198L31 199L30 198M38 198L39 199L38 198M54 198L55 199L54 198M73 198L74 199L73 198M82 198L82 200L84 198L82 198M88 198L89 199L88 198M121 198L122 199L121 198M28 199L29 200L28 199M53 199L54 200L53 199M71 199L72 200L71 199z"/>
<path style="fill:#bff5fa; stroke:none;" d="M81 199L82 200L81 199z"/>
<path style="fill:#9fa0c4; stroke:none;" d="M86 199L87 200L86 199M120 199L121 200L120 199M27 200L28 201L27 200M51 200L52 201L51 200M65 202L68 200L65 202M79.3333 200.667L79.6667 201.333L79.3333 200.667z"/>
<path style="fill:#bff5fa; stroke:none;" d="M80 200L81 201L80 200z"/>
<path style="fill:#9fa0c4; stroke:none;" d="M85 200L86 201L85 200M34 201L35 202L34 201M50 201L51 202L50 201M83 201L84 202L83 201M86 203L89 202L86 203M117 201L116 204L119 202L117 201M23.6667 202.333L24.3333 202.667L23.6667 202.333M76 202L77 203L76 202M78 202L79 203L78 202M82 202L83 203L82 202M31 203L32 204L31 203M47 203L48 204L47 203M55.3333 203.667L55.6667 204.333L55.3333 203.667M67 203L68 204L67 203M74 203L75 204L74 203M77 203L78 204L77 203M20 204L21 205L20 204M53 204L52 207L53 204z"/>
<path style="fill:#BFF5FA; stroke:none;" d="M54 204L55 205L54 204z"/>
<path style="fill:#9fa0c4; stroke:none;" d="M66 204L67 205L66 204M72 204L73 205L72 204M76 204L77 205L76 204M79 204L80 205L79 204M83 204L83 205L86 205L86 204L83 204z"/>
<path style="fill:#BFF5FA; stroke:none;" d="M84 204L85 205L84 204z"/>
<path style="fill:#9fa0c4; stroke:none;" d="M44 205L45 206L44 205M70 205L71 206L70 205M75.3333 205.667L75.6667 206.333L75.3333 205.667M77 205L78 206L77 205z"/>
<path style="fill:#BFF5FA; stroke:none;" d="M83 205L84 206L83 205z"/>
<path style="fill:#9fa0c4; stroke:none;" d="M17 206L18 207L17 206M28.6667 206.333L29.3333 206.667L28.6667 206.333z"/>
<path style="fill:#BFF5FA; stroke:none;" d="M51 206L52 207L51 206z"/>
<path style="fill:#9fa0c4; stroke:none;" d="M58 208L61 207L58 208M63 206L64 207L63 206M68 206L69 207L68 206M82 206L83 207L82 206M113 206L114 207L113 206M16 207L17 208L16 207M25 207L26 208L25 207M43 207L44 208L43 207M49 207L48 209L49 207z"/>
<path style="fill:#BFF5FA; stroke:none;" d="M50 207L51 208L50 207z"/>
<path style="fill:#9fa0c4; stroke:none;" d="M62 207L63 208L62 207M67 207L68 208L67 207M111 207L112 208L111 207M15 208L16 209L15 208M24 208L25 209L24 208z"/>
<path style="fill:#BFF5FA; stroke:none;" d="M49 208L50 209L49 208z"/>
<path style="fill:#9fa0c4; stroke:none;" d="M56 208L57 209L56 208M61 208L62 209L61 208M13 209L14 210L13 209M41 209L42 210L41 209M108 209L109 210L108 209M12 210L13 211L12 210M22 210L21 212L22 210M53 210L54 211L53 210M56 210L57 211L56 210M58 210L59 211L58 210M63 210L64 211L63 210M107 210L108 211L107 210M24 211L25 212L24 211M54 211L55 212L54 211M57 211L58 212L57 211M62 211L63 212L62 211M23 212L24 213L23 212M50 212L51 213L50 212M53 212L54 213L53 212M56 212L57 213L56 212M21 213L22 214L21 213M38 213L39 214L38 213M55 213L56 214L55 213M101 213L102 214L101 213M7 214L8 215L7 214M16 214L16 215L20 215L16 214M59 214L60 215L59 214M99 214L100 215L99 214M6 215L7 216L6 215M46 215L47 216L46 215M52 215L53 216L52 215M98 215L99 216L98 215M16 216L17 217L16 216M34 216L35 217L34 216M48 216L48 219L49 219L48 216M51 216L52 217L51 216M15 217L16 218L15 217M32 217L33 218L32 217M43 217L44 218L43 217M57 217L56 220L57 217M39 218L40 219L39 218M41 218L42 219L41 218z"/>
<path style="fill:#bff5fa; stroke:none;" d="M45 220L48 218L45 220z"/>
<path style="fill:#9fa0c4; stroke:none;" d="M94 218L95 219L94 218M12 219L13 220L12 219M11 220L12 221L11 220M27 220L28 221L27 220M38 220L39 221L38 220M44.6667 220.333L45.3333 220.667L44.6667 220.333M91 220L92 221L91 220M10 221L11 222L10 221M26 221L27 222L26 221M37 221L38 222L37 221M54 221L55 222L54 221M24 222L25 223L24 222M32.3333 222.667L32.6667 223.333L32.3333 222.667M36 222L37 223L36 222M88 222L89 223L88 222M7 223L8 224L7 223M51 223L52 224L51 223M87 223L88 224L87 223M14 224L13 226L15 226L14 224M21 224L22 225L21 224M4 225L5 226L4 225M19 225L20 226L19 225M31 225L32 226L31 225M48 225L49 226L48 225M84 225L85 226L84 225z"/>
<path style="fill:#bff5fa; stroke:none;" d="M5 226L6 227L5 226z"/>
<path style="fill:#9fa0c4; stroke:none;" d="M29.6667 226.333L30.3333 226.667L29.6667 226.333M47 226L48 227L47 226M4 227L5 228L4 227M16 227L17 228L16 227M28 227L29 228L28 227M37 227L36 229L37 227M81 227L82 228L81 227M15 228L16 229L15 228M44 228L45 229L44 228M43 229L44 230L43 229M78 229L79 230L78 229M12 230L13 231L12 230M24 230L25 231L24 230M77 230L78 231L77 230M40 231L41 232L40 231M21 232L22 233L21 232M33.6667 232.333L34.3333 232.667L33.6667 232.333M74 232L75 233L74 232M7 233L8 234L7 233M17.3333 233.667L17.6667 234.333L17.3333 233.667M37 233L38 234L37 233M6 234L7 235L6 234M30 234L31 235L30 234M71 234L72 235L71 234M27.6667 235.333L28.3333 235.667L27.6667 235.333M11.3333 237.667L11.6667 238.333L11.3333 237.667M14 237L15 238L14 237M25 237L26 238L25 237M24 238L25 239L24 238M9 239L10 240L9 239M10 240L11 241L10 240M20.6667 240.333L21.3333 240.667L20.6667 240.333M64 240L65 241L64 240M9 241L10 242L9 241M18 241L19 242L18 241M63 241L64 242L63 241M8 242L9 243L8 242M17 242L18 243L17 242M6 243L7 244L6 243M60 243L61 244L60 243z"/>
<!-- <path style="fill:#bff5fa; stroke:none;" d="M1178 243L1174.96 290L1175.03 307.529L1201 319L1221 325C1219.17 316.931 1212.8 306.691 1206 302L1206 301C1212.01 301 1228.91 302.601 1231.27 294.776C1233.07 288.77 1224.63 282.428 1221 279.086C1208.15 267.25 1193.53 251.053 1178 243z"/> -->
<path style="fill:#9fa0c4; stroke:none;" d="M15 244L16 245L15 244M59 244L60 245L59 244M14 245L15 246L14 245M1177 245L1177 252L1178 252L1177 245M12 246L13 247L12 246M11 247L12 248L11 247M55 247L56 248L55 247M7 249L8 250L7 249M51 249L52 250L51 249M49 250L50 251L49 250M46 252L47 253L46 252M45 253L46 254L45 253M44 254L45 255L44 254M42 256L43 257L42 256M41 257L42 258L41 257M39 258L40 259L39 258M37 259L38 260L37 259M36 260L37 261L36 260M1176 260L1176 266L1177 266L1176 260M32 263L33 264L32 263M31 264L32 265L31 264M30 265L31 266L30 265M29 266L30 267L29 266M28 267L29 268L28 267M27 268L28 269L27 268M26 269L27 270L26 269M25 270L26 271L25 270M24 271L25 272L24 271M23 272L24 273L23 272M1175 274L1175 281L1176 281L1175 274M18 276L19 277L18 276M17 277L18 278L17 277M13 280L14 281L13 280M12 281L13 282L12 281M1174 288L1174 295L1175 295L1174 288M1173 303L1173 307L1174 307L1173 303M851.667 634.333L852.333 634.667L851.667 634.333M895.667 634.333L896.333 634.667L895.667 634.333M919 634L919 635L923 635L919 634M797 635L796 637L797 635z"/>
<!-- <path style="fill:#FFC680; stroke:none;" d="M791 654L789 654C787.935 648.836 787.848 641.832 783 639C783.96 642.408 786.909 660.516 793.298 653.663C797.085 649.6 796.069 643.143 800 639C800.154 642.542 802.105 659.046 808.611 653.573C813.025 649.86 812.688 642.971 817 639L822 656C828.174 653.645 829.126 645.759 831 640L832 640C832.744 642.327 833.445 644.661 834.144 647.002C839.884 666.226 846.981 641.756 853 637C853.941 643.985 855.041 653.316 863 655L873 637C874.264 641.63 876.508 653.71 882.09 654.828C888.541 656.12 893.337 641.569 895 637L897 637C897.572 639.415 898.315 641.677 899.193 644.002C899.82 645.661 900.368 647.381 901.105 648.995C907.981 664.063 915.66 640.968 921 637C923.201 642.365 924.625 649.188 930 652C926.437 631.31 914.589 633.389 907 651L905 651C903.363 646.75 902.427 639.511 898.725 636.608C892.092 631.407 885.462 647.383 884 652C879.415 648.517 874.216 627.29 866.796 639.109C865.824 640.658 865.065 642.365 864.248 643.998C863.092 646.31 861.992 648.616 861 651L859 651C858.459 648.641 857.788 646.334 857.151 643.998C852.048 625.286 844.487 646.322 839 653C837.933 649.664 836.177 637.152 831.159 637.921C826.937 638.569 824.756 648.703 823 652C822.003 648.883 820.179 635.748 815.17 637.346C810.915 638.702 807.892 649.48 805 653L801 635C793.983 637.111 792.7 647.639 791 654z"/> -->
<path style="fill:#9fa0c4; stroke:none;" d="M849 635L850 636L849 635M854 635L855 636L854 635M869 635L870 636L869 635M874 635L875 636L874 635M898 635L899 636L898 635M917 635L918 636L917 635M801.333 636.667L801.667 637.333L801.333 636.667M814 636L815 637L814 636M817 636L818 637L817 636M831.667 636.333L832.333 636.667L831.667 636.333M848 636L849 637L848 636M875 636L876 637L875 636M892 636L893 637L892 636M899 636L900 637L899 636M924 636L925 637L924 636M813 637L814 638L813 637M818 637L819 638L818 637M833 637L834 638L833 637M852.333 637.667L852.667 638.333L852.333 637.667M855 637L856 638L855 637M867 637L868 638L867 637M872 637L873 638L872 637M876 637L877 638L876 637M895.667 637.333L896.333 637.667L895.667 637.333M900 637L901 638L900 637M919.667 637.333L920.333 637.667L919.667 637.333M784 638L785 639L784 638M795.333 638.667L795.667 639.333L795.333 638.667M834 638L835 639L834 638M847 638L848 639L847 638M871 638L872 639L871 638M891 638L892 639L891 638M914 638L915 639L914 638M918 638L919 639L918 638M921 638L922 639L921 638M925 638L926 639L925 638M785 639L786 640L785 639M798 639L799 642L800 642L800 639L798 639M812 639L813 640L812 639M815 639L817 641L817 639L815 639M819 639L820 640L819 639M828 639L829 640L828 639M846 639L847 640L846 639M849 639L850 640L849 639M866 639L867 640L866 639M870 639L871 640L870 639M873 639L874 640L873 639M877.333 639.667L877.667 640.333L877.333 639.667M890 639L891 640L890 639M894 639L895 640L894 639M897.333 639.667L897.667 640.333L897.333 639.667M901.333 639.667L901.667 640.333L901.333 639.667M913 639L914 640L913 639M917 639L918 640L917 639M783.333 640.667L783.667 641.333L783.333 640.667M786.333 640.667L786.667 641.333L786.333 640.667M802.333 640.667L802.667 641.333L802.333 640.667M814.333 640.667L814.667 641.333L814.333 640.667M835.333 640.667L835.667 641.333L835.333 640.667M853 640L853 643L854 643L853 640M856.333 640.667L856.667 641.333L856.333 640.667M869 640L870 641L869 640M893 640L894 641L893 640M916 640L917 641L916 640M922 640L923 641L922 640M926.333 640.667L926.667 641.333L926.333 640.667M794.333 641.667L794.667 642.333L794.333 641.667M797 641L797 644L798 644L797 641M811 641L812 642L811 641M827 641L828 642L827 641M830 641L831 642L830 641M832 641L833 642L832 641M845 641L846 642L845 641M848.333 641.667L848.667 642.333L848.333 641.667M865 641L866 642L865 641M874 641L875 642L874 641M889 641L890 642L889 641M820.333 642.667L820.667 643.333L820.333 642.667M868.333 642.667L868.667 643.333L868.333 642.667M892 642L893 643L892 642M898 642L899 643L898 642M911 642L912 643L911 642M915.333 642.667L915.667 643.333L915.333 642.667M923.333 642.667L923.667 643.333L923.333 642.667M787 643L787 648L788 648L787 643M810.333 643.667L810.667 644.333L810.333 643.667M813.333 643.667L813.667 644.333L813.333 643.667M817.333 643.667L817.667 644.333L817.333 643.667M826.333 643.667L826.667 644.333L826.333 643.667M836.333 643.667L836.667 644.333L836.333 643.667M844.333 643.667L844.667 644.333L844.333 643.667M864 643L865 644L864 643M878.333 643.667L878.667 644.333L878.333 643.667M902.333 643.667L902.667 644.333L902.333 643.667M927 643L928 644L927 643M784.333 644.667L784.667 645.333L784.333 644.667M800.333 644.667L800.667 645.333L800.333 644.667M829 644L830 645L829 644M833.333 644.667L833.667 645.333L833.333 644.667M847 644L848 645L847 644M854 644L854 647L855 647L854 644M857.333 644.667L857.667 645.333L857.333 644.667M875.333 644.667L875.667 645.333L875.333 644.667M887 644L888 645L887 644M891 644L892 645L891 644M899.333 644.667L899.667 645.333L899.333 644.667M910 644L911 645L910 644M914.333 644.667L914.667 645.333L914.333 644.667M793 645L794 646L793 645M796.333 645.667L796.667 646.333L796.333 645.667M803 645L803 648L804 648L803 645M809.333 645.667L809.667 646.333L809.333 645.667M843.333 645.667L843.667 646.333L843.333 645.667M863 645L864 646L863 645M867 645L868 646L867 645M909 645L910 646L909 645M924.333 645.667L924.667 646.333L924.333 645.667M928.333 645.667L928.667 646.333L928.333 645.667M812.333 646.667L812.667 647.333L812.333 646.667M818.333 646.667L818.667 647.333L818.333 646.667M821.333 646.667L821.667 647.333L821.333 646.667M825 646L826 647L825 646M846.333 646.667L846.667 647.333L846.333 646.667M886 646L887 647L886 646M890 646L891 647L890 646M903.333 646.667L903.667 647.333L903.333 646.667M808.333 647.667L808.667 648.333L808.333 647.667M828 647L829 648L828 647M837.333 647.667L837.667 648.333L837.333 647.667M842.333 647.667L842.667 648.333L842.333 647.667M858.333 647.667L858.667 648.333L858.333 647.667M862 647L863 648L862 647M866 647L867 648L866 647M876.333 647.667L876.667 648.333L876.333 647.667M879.333 647.667L879.667 648.333L879.333 647.667M885 647L886 648L885 647M900.333 647.667L900.667 648.333L900.333 647.667M908 647L909 648L908 647M913 647L914 648L913 647M785 648L785 651L786 651L785 648M792.333 648.667L792.667 649.333L792.333 648.667M801.333 648.667L801.667 649.333L801.333 648.667M824.333 648.667L824.667 649.333L824.333 648.667M834.333 648.667L834.667 649.333L834.333 648.667M855.333 648.667L855.667 649.333L855.333 648.667M889.333 648.667L889.667 649.333L889.333 648.667M925 648L926 649L925 648M929 648L930 649L929 648M795.333 649.667L795.667 650.333L795.333 649.667M804.333 649.667L804.667 650.333L804.333 649.667M807.333 649.667L807.667 650.333L807.333 649.667M811 649L812 650L811 649M841.333 649.667L841.667 650.333L841.333 649.667M845 649L846 650L845 649M861 649L862 650L861 649M865.333 649.667L865.667 650.333L865.333 649.667M880 649L881 650L880 649M884 649L885 650L884 649M904 649L905 650L904 649M907 649L908 650L907 649M788.333 650.667L788.667 651.333L788.333 650.667M791.333 650.667L791.667 651.333L791.333 650.667M819.333 650.667L819.667 651.333L819.333 650.667M822 650L823 651L822 650M827.333 650.667L827.667 651.333L827.333 650.667M838.333 650.667L838.667 651.333L838.333 650.667M859 650L860 651L859 650M877.333 650.667L877.667 651.333L877.333 650.667M901 650L902 651L901 650M905.667 650.333L906.333 650.667L905.667 650.333M912 650L913 651L912 650M926 650L927 651L926 650M930 650L929 653L930 650M802.333 651.667L802.667 652.333L802.333 651.667M806 651L807 652L806 651M810 651L811 652L810 651M823 651L824 652L823 651M835 651L836 652L835 651M840 651L841 652L840 651M844 651L845 652L844 651M856 651L857 652L856 651M882.667 651.333L883.333 651.667L882.667 651.333M888 651L889 652L888 651M927 651L928 652L927 651M786.333 652.667L786.667 653.333L786.333 652.667M794 652L795 653L794 652M805 652L806 653L805 652M839 652L840 653L839 652M857 652L858 653L857 652M864 652L865 653L864 652M878 652L879 653L878 652M887 652L888 653L887 652M902 652L903 653L902 652M911 652L912 653L911 652M789.667 653.333L790.333 653.667L789.667 653.333M809 653L810 654L809 653M820 653L821 654L820 653M826 653L827 654L826 653M836 653L837 654L836 653M863 653L864 654L863 653M903 653L904 654L903 653M910 653L911 654L910 653M787 654L788 655L787 654M793 654L794 655L793 654M803 654L804 655L803 654M808 654L809 655L808 654M842 654L843 655L842 654M859 654L860 655L859 654M885 654L886 655L885 654M904 654L905 655L904 654M908 654L909 655L908 654M788 655L789 656L788 655M792 655L793 656L792 655M805 655L806 656L805 655M807 655L808 656L807 655M821 655L822 656L821 655M824 655L825 656L824 655M838 655L839 656L838 655M840 655L841 656L840 655M881.667 655.333L882.333 655.667L881.667 655.333M884 655L885 656L884 655M789.667 656.333L790.333 656.667L789.667 656.333M780.333 658.667L780.667 659.333L780.333 658.667z"/>
<!-- <path style="fill:#FFC680; stroke:none;" d="M781 658C781.102 662.89 784.983 689.282 794.566 681.381C798.245 678.348 797.927 670.356 799 666C805.655 680.046 812.201 685.415 816 667L818 667C818.983 670.415 822.802 683.838 828.44 679.953C831.62 677.761 833.362 668.626 835 665C837.948 668.98 838.41 676.436 842.299 679.353C848.39 683.921 851.932 668.737 853 665L854 665C855.156 670.962 855.372 678.032 862 680L871 663C871.139 666.222 873.04 685.394 879.356 681.11C884.571 677.571 884.374 668.265 890 664C890.158 667.965 892.613 678.353 897.093 679.654C903.661 681.561 902.857 666.734 909.12 665.523C914.92 664.402 915.183 675.744 919.259 677.914C925.012 680.976 925.258 670.686 928.506 668.921C933.411 666.257 939.61 681.132 943 670C933.217 665.351 929.574 660.92 920 669C913.317 657.318 904.898 662.447 897 670C893.205 658.592 882.845 660.004 878 670L877 670C875.309 657.084 864.986 659.852 861 670L860 670C857.586 654.815 848.368 665.595 844 673C839.593 660.083 831.119 660.791 826 673C819.71 661.992 813.025 659.921 809 674L807 674C802.211 656.091 794.598 664.605 792 678L781 658z"/> -->
<path style="fill:#9fa0c4; stroke:none;" d="M783 659L784 660L783 659M868 659L868 660L872 660L868 659M867 660L868 661L867 660M873 660L874 661L873 660M888.667 660.333L889.333 660.667L888.667 660.333M910.667 660.333L911.333 660.667L910.667 660.333M784 661L785 662L784 661M835.667 661.333L836.333 661.667L835.667 661.333M851 661L852 662L851 661M856 661L857 662L856 661M866 661L867 662L866 661M885 661L886 662L885 661M891 661L892 662L891 661M906 661L906 662L909 662L906 661M913 661L914 662L913 661z"/>
<path style="fill:#ffffff; stroke:none;" d="M786 662C786.45 667.697 786.549 675.023 792 678L797 662L786 662M802 662L803 663L802 662z"/>
<path style="fill:#9fa0c4; stroke:none;" d="M816 662L816 663L819 663L816 662M833 662L834 663L833 662M838 662L839 663L838 662M874 662L875 663L874 662M905 662L906 663L905 662M930 662L931 663L930 662z"/>
<path style="fill:#ffffff; stroke:none;" d="M803 663L807 674L809 674L813 663L803 663M821 663L826 673L832 663L821 663z"/>
<path style="fill:#9fa0c4; stroke:none;" d="M839 663L840 664L839 663M865 663L866 664L865 663M869 663L871 665L871 663L869 663M883 663L884 664L883 663M893 663L894 664L893 663M904 663L905 664L904 663M927.667 663.333L928.333 663.667L927.667 663.333M932 663L933 664L932 663z"/>
<path style="fill:#ffffff; stroke:none;" d="M840 664L844 673L849 664L840 664M859 664L860 670L861 670L864 664L859 664z"/>
<path style="fill:#BFF5FA; stroke:none;" d="M869 664L870 665L869 664z"/>
<path style="fill:#9fa0c4; stroke:none;" d="M875 664L876 665L875 664M882 664L883 665L882 664M888.667 664.333L889.333 664.667L888.667 664.333M903 664L904 665L903 664M909.667 664.333L910.333 664.667L909.667 664.333M916 664L917 665L916 664M934 664L935 665L934 664z"/>
<path style="fill:#ffffff; stroke:none;" d="M876 665L877 670L878 670L881 665L876 665M895 665L897 670L901 666L895 665z"/>
<path style="fill:#9fa0c4; stroke:none;" d="M901 665L902 666L901 665M907 665L908 666L907 665z"/>
<path style="fill:#BFF5FA; stroke:none;" d="M908 665L908 666L912 666L908 665z"/>
<path style="fill:#9fa0c4; stroke:none;" d="M912 665L913 666L912 665M917 665L918 666L917 665M935 665L936 666L935 665z"/>
<path style="fill:#ffffff; stroke:none;" d="M919 666L920 669L923 666L919 666z"/>
<path style="fill:#9fa0c4; stroke:none;" d="M936 666L937 667L936 666z"/>
<!-- <path style="fill:#FFC680; stroke:none;" d="M780 684C780.83 687.886 784.86 710.602 790.571 707.824C793.845 706.232 795.04 695.448 797 692C798.07 695.289 803.035 714.128 809.147 708.353C813.213 704.51 812.221 695.051 815 690L816 690C817.989 693.893 820.587 709.407 825.039 710.079C829.936 710.817 833.391 695.562 835 692L837 692C838.392 695.736 840.703 711.29 846.787 709.539C850.358 708.511 852.695 696.447 854 693L855 693C855.744 695.326 856.453 697.652 857.12 700.002C862.263 718.102 870.74 694.738 877 691C878.517 698.35 878.972 708.313 888 709L891 694L893 694C893.464 696.026 893.983 698.015 894.591 700.005C899.79 717.015 906.148 697.596 911 692C912.739 701.23 917.341 709.341 923 697L924 700L926 700C927.813 692.291 924.089 690.029 917 693C912.955 681.998 903.631 692.985 901 699L900 699C894.576 684.942 892.069 689.663 883 697C882.023 675.974 868.66 694.496 862 700C861.773 695.035 858.468 684.596 851.637 690.603C848.312 693.528 847.041 699.172 845 703C840.701 686.389 832.821 685.621 826 702C818.691 686.375 812.136 683.861 806 702L805 702C803.748 698.085 803.084 691.456 799.581 688.877C792.426 683.61 789.386 697.575 789 702C786.233 695.442 788.884 685.413 780 684z"/> -->
<path style="fill:#ffffff; stroke:none;" d="M835 692L827 711L846 711L846 710L837 692L835 692z"/>
</svg>
